<?xml version="1.0" encoding="UTF-8"?>
<svg id="Camada_1" data-name="Camada 1" xmlns="http://www.w3.org/2000/svg" viewBox="0 0 1080 1080">
  <defs>
    <style>
      .cls-1 {
        fill: #fb8501;
      }

      .cls-1, .cls-2, .cls-3 {
        stroke-width: 0px;
      }

      .cls-1, .cls-3 {
        fill-rule: evenodd;
      }

      .cls-2, .cls-3 {
        fill: #f6f3e9;
      }
    </style>
  </defs>
  <g>
    <path class="cls-1" d="M682.53,464.84v-87.09c0-20.41-10.12-37.93-27.79-48.13l-92.72-53.53c-17.67-10.2-37.91-10.2-55.58,0l-95.22,55.01c19.19-11.12,38.42-.71,53.82,8.18l9.67,5.58,207.81,119.98h0Z"/>
    <path class="cls-3" d="M385.72,370.12c-3.7,30.31,13.58,55.67,38.93,70.3l63.74,36.8v-59.93c0-34.35,12.01-51.78,30.84-46.73l-54.2-31.29c-15.4-8.89-34.63-19.3-53.82-8.18,1.47-.89-22.25,12.41-25.5,39.02h0Z"/>
    <path class="cls-1" d="M385.22,476.53v87.09c0,20.41,10.12,37.93,27.79,48.13l92.72,53.53c17.67,10.2,37.91,10.2,55.58,0l95.22-55.01c-19.19,11.12-38.42.71-53.82-8.18l-9.67-5.58-207.82-119.98h0Z"/>
    <path class="cls-3" d="M682.03,571.26c3.7-30.31-13.58-55.67-38.93-70.3l-63.74-36.8v59.93c0,17.92-4.45,53.8-30.84,46.73l54.2,31.29c15.4,8.89,34.63,19.3,53.82,8.18-1.47.89,22.25-12.41,25.5-39.02h0Z"/>
  </g>
  <g>
    <path class="cls-2" d="M322.04,796.17l10.29-13.33c2.22,2.03,5.14,3.72,8.76,5.07,3.62,1.35,7.12,2.03,10.5,2.03,3.09,0,5.65-.41,7.68-1.23,2.03-.82,3.04-2.29,3.04-4.42,0-1.25-.41-2.29-1.23-3.12-.82-.82-2.37-1.67-4.64-2.54-2.27-.87-5.58-1.88-9.92-3.04-3.48-.96-6.83-2.27-10.07-3.91-3.24-1.64-5.89-3.84-7.97-6.59-2.08-2.75-3.11-6.2-3.11-10.36s1.25-7.94,3.77-11.08c2.51-3.14,5.94-5.6,10.29-7.39,4.35-1.79,9.22-2.68,14.63-2.68,5.79,0,10.89.65,15.28,1.96,4.39,1.3,8.38,3.21,11.95,5.72l-8.84,13.76c-2.13-1.45-4.64-2.75-7.53-3.91-2.9-1.16-6.13-1.74-9.71-1.74-3.19,0-5.5.46-6.95,1.38-1.45.92-2.17,2.15-2.17,3.69,0,2.22,1.52,3.86,4.56,4.92,3.04,1.06,7.07,2.27,12.1,3.62,6.86,1.84,11.88,4.47,15.07,7.9,3.19,3.43,4.78,7.95,4.78,13.55,0,4.93-1.45,9.01-4.35,12.24-2.9,3.24-6.64,5.63-11.23,7.17-4.59,1.54-9.44,2.32-14.56,2.32-6.08,0-11.83-.85-17.24-2.54-5.41-1.69-9.8-4.18-13.18-7.46Z"/>
    <path class="cls-2" d="M390.42,725.91v-18.69h22.31v18.69h-22.31ZM391.14,803.85v-67.95h20.86v67.95h-20.86Z"/>
    <path class="cls-2" d="M419.97,796.17l10.29-13.33c2.22,2.03,5.14,3.72,8.76,5.07,3.62,1.35,7.12,2.03,10.5,2.03,3.09,0,5.65-.41,7.68-1.23,2.03-.82,3.04-2.29,3.04-4.42,0-1.25-.41-2.29-1.23-3.12-.82-.82-2.37-1.67-4.64-2.54-2.27-.87-5.58-1.88-9.92-3.04-3.48-.96-6.83-2.27-10.07-3.91-3.24-1.64-5.89-3.84-7.97-6.59-2.08-2.75-3.12-6.2-3.12-10.36s1.25-7.94,3.77-11.08c2.51-3.14,5.94-5.6,10.29-7.39,4.35-1.79,9.22-2.68,14.63-2.68,5.79,0,10.89.65,15.28,1.96,4.39,1.3,8.38,3.21,11.95,5.72l-8.84,13.76c-2.12-1.45-4.64-2.75-7.53-3.91-2.9-1.16-6.13-1.74-9.71-1.74-3.19,0-5.51.46-6.95,1.38-1.45.92-2.17,2.15-2.17,3.69,0,2.22,1.52,3.86,4.56,4.92,3.04,1.06,7.07,2.27,12.1,3.62,6.86,1.84,11.88,4.47,15.07,7.9,3.19,3.43,4.78,7.95,4.78,13.55,0,4.93-1.45,9.01-4.35,12.24-2.9,3.24-6.64,5.63-11.23,7.17-4.59,1.54-9.44,2.32-14.56,2.32-6.08,0-11.83-.85-17.24-2.54-5.41-1.69-9.8-4.18-13.18-7.46Z"/>
    <path class="cls-2" d="M488.64,803.85v-67.95h19.99l.58,7.39c2.22-2.7,5.17-4.88,8.84-6.52,3.67-1.64,7.44-2.46,11.3-2.46,7.73,0,13.91,2.32,18.54,6.95,4.64,4.64,6.95,11.49,6.95,20.57v42.01h-20.86v-39.12c0-3.77-.94-6.76-2.82-8.98-1.88-2.22-4.52-3.33-7.9-3.33-4.54,0-7.99,1.5-10.36,4.49-2.37,3-3.55,6.47-3.55,10.43v36.51h-20.72Z"/>
    <path class="cls-2" d="M605.26,803.85l-.58-6.37c-4.83,5.6-11.69,8.4-20.57,8.4-3.19,0-6.54-.6-10.07-1.81-3.53-1.21-6.54-3.36-9.05-6.45-2.51-3.09-3.77-7.34-3.77-12.75s1.38-9.8,4.13-13.47c2.75-3.67,6.5-6.45,11.23-8.33,4.73-1.88,10.04-2.82,15.94-2.82,2.41,0,4.85.05,7.32.14,2.46.1,4.08.24,4.85.43v-1.45c0-3.48-1.33-5.96-3.98-7.46-2.66-1.5-5.67-2.25-9.05-2.25-4.54,0-8.36.58-11.45,1.74-3.09,1.16-5.7,2.46-7.82,3.91l-8.55-12.75c2.8-2.22,6.61-4.27,11.44-6.16,4.83-1.88,11.25-2.83,19.27-2.83,10.33,0,17.96,2.78,22.89,8.33,4.93,5.56,7.39,13.02,7.39,22.38v39.55h-19.56ZM604.69,779.36v-5.51c-.48-.09-1.4-.22-2.75-.36-1.35-.15-2.9-.22-4.64-.22-5.79,0-9.9.82-12.31,2.46-2.42,1.64-3.62,3.96-3.62,6.95,0,5.6,3.38,8.4,10.14,8.4,3.28,0,6.3-1.01,9.05-3.04,2.75-2.03,4.13-4.93,4.13-8.69Z"/>
    <path class="cls-2" d="M640.32,777.92v-25.64h-10.72v-16.37h10.72v-22.31h20.86v22.31h17.53v16.37h-17.53v26.8c0,3.28.65,5.82,1.96,7.61,1.3,1.79,3.35,2.68,6.16,2.68,2.12,0,3.96-.36,5.5-1.09,1.54-.72,2.99-1.57,4.35-2.54l8.4,12.75c-6.47,5.22-13.62,7.82-21.44,7.82-6.47,0-11.59-1.21-15.36-3.62s-6.45-5.75-8.04-10c-1.59-4.25-2.39-9.17-2.39-14.78Z"/>
    <path class="cls-2" d="M684.8,769.8c0-6.66,1.54-12.75,4.64-18.25,3.09-5.51,7.36-9.87,12.82-13.11,5.46-3.24,11.81-4.85,19.05-4.85s13.59,1.62,19.05,4.85c5.46,3.24,9.71,7.61,12.75,13.11,3.04,5.5,4.56,11.59,4.56,18.25s-1.52,12.75-4.56,18.25c-3.04,5.5-7.29,9.9-12.75,13.18-5.46,3.28-11.81,4.93-19.05,4.93s-13.59-1.64-19.05-4.93c-5.46-3.28-9.73-7.68-12.82-13.18-3.09-5.51-4.64-11.59-4.64-18.25ZM721.31,788.06c3.57,0,6.54-.87,8.91-2.61,2.37-1.74,4.18-4.01,5.43-6.81,1.25-2.8,1.88-5.75,1.88-8.84s-.63-6.01-1.88-8.77c-1.26-2.75-3.07-5-5.43-6.74-2.37-1.74-5.34-2.61-8.91-2.61s-6.45.87-8.91,2.61-4.32,3.98-5.58,6.74c-1.26,2.75-1.88,5.68-1.88,8.77s.63,6.04,1.88,8.84c1.25,2.8,3.12,5.07,5.58,6.81,2.46,1.74,5.43,2.61,8.91,2.61Z"/>
  </g>
</svg>